<svg width="49px" height="47px" viewBox="0 0 49 47" version="1.1" xmlns="http://www.w3.org/2000/svg" xmlns:xlink="http://www.w3.org/1999/xlink">
    <title>Logotype/Icon/White</title>
    <desc>Created with Sketch.</desc>
    <g id="Symbols" stroke="none" stroke-width="1" fill="none" fill-rule="evenodd">
        <g id="Artboard">
            <g id="Logotype/Icon/White">
                <path d="M38.7841179,23.4860409 C38.7841179,32.1763409 31.7388179,39.2211709 23.0489879,39.2211709 C14.357748,39.2211709 7.31244798,32.1763409 7.31244798,23.4860409 C7.31244798,14.794801 14.357748,7.75044098 23.0489879,7.75044098 C31.7388179,7.75044098 38.7841179,14.794801 38.7841179,23.4860409" id="Fill-1" fill="#FE424D"></path>
                <path d="M40.0536819,31.8817919 L23.3484719,31.8817919 C21.6860819,31.8817919 20.4109719,31.2769019 19.525962,30.0652419 C18.640012,28.8578119 18.196802,27.1653419 18.196802,24.5794019 C18.196802,21.9934619 18.640012,20.3014619 19.525962,19.089802 C20.4109719,17.880962 21.6860819,17.276072 23.3484719,17.276072 L40.0536819,17.276072 C40.2163019,17.276072 40.3685819,17.270432 40.5199219,17.262442 C37.6815919,10.853992 31.2275519,6.37771198 23.7183619,6.37771198 C20.3456419,6.37771198 18.632022,9.03744198 18.408772,11.235632 C18.048282,14.778022 16.759072,16.794792 14.544432,17.289702 C13.935782,17.454202 12.162942,17.702832 9.22732198,17.702832 C6.22637198,17.702832 5.37191199,22.6618019 5.37191199,24.5794019 C5.37191199,26.4960619 6.22637198,31.4550319 9.22732198,31.4550319 C12.162942,31.4550319 13.935782,31.7036619 14.544432,31.8681619 C16.759072,32.3626019 18.048282,34.3779619 18.408772,37.9222319 C18.632022,40.1204219 20.3456419,42.7796819 23.7183619,42.7796819 C31.2275519,42.7796819 37.6815919,38.3010519 40.5199219,31.8954219 C40.3685819,31.8883719 40.2163019,31.8817919 40.0536819,31.8817919" id="Fill-6" fill="#1D1D1B"></path>
                <path d="M40.0536819,30.9546229 L23.3484719,30.9546229 C21.6860819,30.9546229 20.4109719,30.3487929 19.525962,29.1380729 C18.640012,27.9297029 18.196802,26.2381729 18.196802,23.6512929 C18.196802,21.0653529 18.640012,19.374293 19.525962,18.162633 C20.4109719,16.953793 21.6860819,16.347963 23.3484719,16.347963 L40.0536819,16.347963 C40.2163019,16.347963 40.3685819,16.342323 40.5199219,16.334333 C37.6815919,9.92682297 31.2275519,5.45054299 23.7183619,5.45054299 C20.3456419,5.45054299 18.632022,8.10933298 18.408772,10.308463 C18.048282,13.850853 16.759072,15.866683 14.544432,16.361593 C13.935782,16.527033 12.162942,16.774723 9.22732198,16.774723 C6.22637198,16.774723 5.37191199,21.7346329 5.37191199,23.6512929 C5.37191199,25.5679529 6.22637198,30.5278629 9.22732198,30.5278629 C12.162942,30.5278629 13.935782,30.7755529 14.544432,30.9409929 C16.759072,31.4354329 18.048282,33.4507929 18.408772,36.9941229 C18.632022,39.1932529 20.3456419,41.8520429 23.7183619,41.8520429 C31.2275519,41.8520429 37.6815919,37.3738829 40.5199219,30.9682529 C40.3685819,30.9602629 40.2163019,30.9546229 40.0536819,30.9546229" id="Fill-8" fill="#FEFEFE"></path>
                <path d="M23.8326164,0 C35.9753415,0 45.951708,9.34144737 47.0632375,21.2780814 C47.9309177,21.6543879 48.5379048,22.518432 48.5379048,23.5241249 C48.5379048,24.5313741 47.9290378,25.3965357 47.0589811,25.772228 C45.9238415,37.6846235 35.9583852,47 23.8326164,47 C10.9458502,47 0.499061997,36.4786916 0.499061997,23.5 C0.499061997,10.5213084 10.9458502,0 23.8326164,0 Z M23.8326164,1.95833333 C12.0197473,1.95833333 2.44352487,11.602866 2.44352487,23.5 C2.44352487,35.397134 12.0197473,45.0416667 23.8326164,45.0416667 C34.8856491,45.0416667 43.9805158,36.5979566 45.1047988,25.7658426 C44.2404253,25.3874902 43.6379048,24.5261108 43.6379048,23.5241249 C43.6379048,22.5202077 44.2427503,21.6574395 45.1082028,21.2797663 C44.0062827,10.4259861 34.9013088,1.95833333 23.8326164,1.95833333 Z" id="Combined-Shape" fill="#FFFFFF"></path>
            </g>
        </g>
    </g>
</svg>